<?xml version="1.0" encoding="utf-8"?><svg viewBox="0 0 70 70" xmlns="http://www.w3.org/2000/svg" xmlns:xlink="http://www.w3.org/1999/xlink"><style>:root>svg{display:none}:root>svg:target{display:block}</style><svg fill="none" viewBox="0 0 14 18" id="Bookmark" xmlns="http://www.w3.org/2000/svg"><path clip-rule="evenodd" d="M2 0h10a2 2 0 0 1 2 2v16l-6.905-5L0 18V2a2 2 0 0 1 2-2Z"/></svg><svg fill="none" viewBox="0 0 15 15" id="Clock" xmlns="http://www.w3.org/2000/svg"><path fill-rule="evenodd" clip-rule="evenodd" d="M7.5 14.25a6.75 6.75 0 1 1 0-13.5 6.75 6.75 0 0 1 0 13.5Zm.75-6.75v-3a.75.75 0 0 0-1.5 0v3.75c0 .414.336.75.75.75h2.25a.75.75 0 0 0 0-1.5h-1.5Z" fill="#fff"/></svg><svg fill="none" viewBox="0 0 15 14" id="Comment" xmlns="http://www.w3.org/2000/svg"><path fill-rule="evenodd" clip-rule="evenodd" d="M11.135 11v3L8.36 11H2.25a1.5 1.5 0 0 1-1.5-1.5V2A1.5 1.5 0 0 1 2.25.5h10.5a1.5 1.5 0 0 1 1.5 1.5v7.5a1.5 1.5 0 0 1-1.5 1.5h-1.615Z" fill="#BCBFC2"/></svg><svg fill="none" viewBox="0 0 15 10" id="Eye" xmlns="http://www.w3.org/2000/svg"><path fill-rule="evenodd" clip-rule="evenodd" d="M15 4.637S12 9.75 7.5 9.75 0 4.637 0 4.637 3 0 7.5 0 15 4.637 15 4.637ZM7.5 2.25a2.629 2.629 0 0 1 2.625 2.626A2.626 2.626 0 1 1 7.5 2.25Zm-.001 3.938c.724 0 1.31-.591 1.31-1.316 0-.726-.587-1.317-1.31-1.317-.724 0-1.311.59-1.311 1.316 0 .726.587 1.317 1.31 1.317Z" fill="#BCBFC2"/></svg><svg fill="none" viewBox="0 0 10 18" id="Facebook" xmlns="http://www.w3.org/2000/svg"><path fill-rule="evenodd" clip-rule="evenodd" d="M9.623.004 7.225 0C4.53 0 2.789 1.739 2.789 4.43v2.042H.377A.372.372 0 0 0 0 6.84V9.8c0 .203.169.367.377.367H2.79v7.467c0 .203.169.367.377.367h3.146a.372.372 0 0 0 .378-.367v-7.467h2.82a.372.372 0 0 0 .376-.367l.002-2.96c0-.097-.04-.19-.11-.26a.383.383 0 0 0-.268-.107H6.69V4.741c0-.832.203-1.255 1.317-1.255h1.616A.372.372 0 0 0 10 3.119V.37a.372.372 0 0 0-.377-.367Z" fill="#fff"/></svg><svg fill="none" viewBox="0 0 13 13" id="Heart" xmlns="http://www.w3.org/2000/svg"><path fill-rule="evenodd" clip-rule="evenodd" d="M11.84 1.96C11.17 1.212 10.28.8 9.334.8c-.947 0-1.74.412-2.41 1.16l-.425.68-.425-.68C5.406 1.212 4.612.8 3.665.8c-.945 0-1.835.412-2.504 1.16-1.381 1.546-1.381 4.06 0 5.604l4.949 4.757a.523.523 0 0 0 .393.179c.14 0 .28-.06.387-.18l4.95-4.756c1.38-1.544 1.38-4.058 0-5.604Z" fill="#BCBFC2"/></svg><svg fill="none" viewBox="0 0 18 16" id="Heart-medium" xmlns="http://www.w3.org/2000/svg"><path fill-rule="evenodd" clip-rule="evenodd" d="M16.119 1.947C15.227.95 14.04.4 12.779.4c-1.261 0-2.32.55-3.212 1.547L9 2.852l-.567-.905C7.541.95 6.483.4 5.221.4 3.959.4 2.773.95 1.88 1.947.04 4.007.04 7.36 1.881 9.42l6.599 6.342a.697.697 0 0 0 .524.239.69.69 0 0 0 .516-.24L16.12 9.42c1.841-2.06 1.841-5.412 0-7.472Z" fill="#fff"/></svg><svg fill="none" viewBox="0 0 18 17" id="Home" xmlns="http://www.w3.org/2000/svg"><path fill-rule="evenodd" clip-rule="evenodd" d="M2 17h5v-6h4v6h5v-7h2L9 0 0 10h2v7Z" fill="#fff"/></svg><svg fill="none" viewBox="0 0 70 70" id="Hooks" xmlns="http://www.w3.org/2000/svg"><path fill-rule="evenodd" clip-rule="evenodd" d="M15.556 33.444V38.5H31.5V70H0V33.444C0 21.4 3.486 11.43 10.362 5.834 15.118 1.962 20.882 0 28 0v16.579c-3.864 0-12.444 1.546-12.444 16.865Zm38.5 0V38.5H70V70H38.5V33.444c0-12.044 3.098-22.015 9.973-27.61C53.229 1.962 59.383 0 66.5 0v16.579c-3.864 0-12.444 1.546-12.444 16.865Z" fill="#C5E4FC"/></svg><svg fill="none" viewBox="0 0 18 18" id="Instagram" xmlns="http://www.w3.org/2000/svg"><path fill-rule="evenodd" clip-rule="evenodd" d="M9 .5c2.309 0 2.598.01 3.505.051.904.041 1.522.185 2.063.395a4.166 4.166 0 0 1 1.505.98c.473.473.764.947.98 1.506.21.54.355 1.159.396 2.063.041.907.051 1.197.051 3.505 0 2.309-.01 2.598-.051 3.505-.041.904-.185 1.522-.395 2.063a4.167 4.167 0 0 1-.98 1.505 4.167 4.167 0 0 1-1.506.98c-.54.21-1.159.355-2.063.396-.907.041-1.197.051-3.505.051s-2.598-.01-3.505-.051c-.904-.041-1.522-.185-2.063-.395a4.167 4.167 0 0 1-1.505-.98 4.166 4.166 0 0 1-.98-1.506c-.21-.54-.355-1.159-.396-2.063C.51 11.598.5 11.308.5 9s.01-2.598.051-3.505c.041-.904.185-1.522.395-2.063a4.166 4.166 0 0 1 .98-1.505 4.166 4.166 0 0 1 1.506-.98C3.972.736 4.591.591 5.495.55 6.402.51 6.692.5 9 .5Zm-.003 11.33a2.833 2.833 0 1 0 0-5.665 2.833 2.833 0 0 0 0 5.665Zm0-7.196a4.363 4.363 0 1 1 0 8.727 4.363 4.363 0 0 1 0-8.727Zm5.859-.262a1.039 1.039 0 1 1-2.078 0 1.039 1.039 0 0 1 2.078 0Z" fill="#fff"/></svg><svg fill="none" viewBox="0 0 15 15" id="Loading" xmlns="http://www.w3.org/2000/svg"><path fill-rule="evenodd" clip-rule="evenodd" d="M3.432 10.818A5.25 5.25 0 0 0 12.75 7.5h1.5a6.75 6.75 0 0 1-11.883 4.383l-.977.977a.375.375 0 0 1-.64-.265v-3.22C.75 9.168.918 9 1.125 9h3.22a.375.375 0 0 1 .265.64l-1.178 1.178Zm8.136-6.636A5.25 5.25 0 0 0 2.25 7.5H.75a6.75 6.75 0 0 1 11.883-4.383l.977-.977a.375.375 0 0 1 .64.265v3.22a.375.375 0 0 1-.375.375h-3.22a.375.375 0 0 1-.265-.64l1.178-1.178Z" fill="#BCBFC2"/></svg><svg fill="none" viewBox="0 0 18 18" id="Pencil" xmlns="http://www.w3.org/2000/svg"><path fill-rule="evenodd" clip-rule="evenodd" d="M0 14.2V18h3.8l11-11.1L11 3.1 0 14.2ZM17.7 4c.4-.4.4-1 0-1.4L15.4.3c-.4-.4-1-.4-1.4 0l-1.8 1.8L16 5.9 17.7 4Z" fill="#BCBFC2"/></svg><svg fill="none" viewBox="0 0 18 12" id="Share" xmlns="http://www.w3.org/2000/svg"><path fill-rule="evenodd" clip-rule="evenodd" d="M17.782 5.132 11.665.202c-.568-.458-1.54-.07-1.54.493v2.183c-3.19.106-5.581.951-7.373 2.395C0 7.492 0 10 0 11.2c2.752-3.36 10.125-3.36 10.125-3.36v2.68c0 .564 1.016.916 1.54.494l6.117-4.93A.57.57 0 0 0 18 5.6a.543.543 0 0 0-.218-.468Z" fill="#fff"/></svg><svg fill="none" viewBox="0 0 18 18" id="Sun" xmlns="http://www.w3.org/2000/svg"><path fill-rule="evenodd" clip-rule="evenodd" d="M9 15.476c.415 0 .75.335.75.75v1.025c0 .415-.335.749-.75.749a.748.748 0 0 1-.75-.75v-1.024c0-.415.335-.75.75-.75ZM9 2.524a.748.748 0 0 1-.75-.75V.75C8.25.334 8.586 0 9 0s.75.334.75.75v1.024c0 .415-.335.75-.75.75Zm8.25 5.727c.416 0 .75.334.75.749s-.334.75-.75.75h-1.024a.748.748 0 0 1-.75-.75c0-.415.335-.75.75-.75h1.025Zm-15.476 0c.415 0 .75.334.75.749s-.335.75-.75.75H.75A.748.748 0 0 1 0 9c0-.415.334-.75.75-.75h1.024ZM14.64 4.423a.75.75 0 1 1-1.062-1.062l.724-.723a.75.75 0 0 1 1.061 0 .75.75 0 0 1 0 1.061l-.723.724ZM3.36 13.577a.75.75 0 1 1 1.062 1.062l-.724.723a.75.75 0 0 1-1.061 0 .75.75 0 0 1 0-1.061l.723-.724Zm11.278 0 .723.724a.75.75 0 0 1 0 1.061.75.75 0 0 1-1.061 0l-.724-.723a.75.75 0 1 1 1.062-1.062ZM3.36 4.423l-.723-.724a.75.75 0 0 1 0-1.061.75.75 0 0 1 1.061 0l.724.723a.75.75 0 0 1 0 1.062.75.75 0 0 1-1.062 0ZM9 3.36A5.647 5.647 0 0 1 14.639 9 5.645 5.645 0 0 1 9 14.639 5.645 5.645 0 0 1 3.361 9 5.645 5.645 0 0 1 9 3.361Zm0 9.775A4.14 4.14 0 0 0 13.136 9 4.14 4.14 0 0 0 9 4.864 4.14 4.14 0 0 0 4.864 9 4.14 4.14 0 0 0 9 13.136Z" fill="#BCBFC2"/></svg><svg fill="none" viewBox="0 0 15 13" id="Thumb" xmlns="http://www.w3.org/2000/svg"><path fill-rule="evenodd" clip-rule="evenodd" d="M13.5.25a.75.75 0 0 1 .75.75v6.75a.75.75 0 0 1-.75.75h-.75a.75.75 0 0 1-.75-.75V1a.75.75 0 0 1 .75-.75h.75ZM1.977 8.79C1.302 8.79.75 8.2.75 7.478c.01-1.005.034-1.559.072-1.662.039-.104.67-1.696 1.892-4.777C2.898.578 4.41.25 4.9.25H9.21c.675 0 1.665.591 1.665 1.314V8.5l-4.07 4.212-.003.002a.939.939 0 0 1-1.327.018c-.123-.197-.245-.46-.245-.722v-.197l.613-3.022H1.977Z" fill="#BCBFC2"/></svg><svg fill="none" viewBox="0 0 15 13" id="ThumbOk" xmlns="http://www.w3.org/2000/svg"><path fill-rule="evenodd" clip-rule="evenodd" d="M1.5 12.75A.75.75 0 0 1 .75 12V5.25a.75.75 0 0 1 .75-.75h.75a.75.75 0 0 1 .75.75V12a.75.75 0 0 1-.75.75H1.5Zm11.523-8.54c.675 0 1.227.59 1.227 1.313-.01 1.005-.034 1.559-.072 1.662-.039.104-.67 1.696-1.892 4.777-.184.46-1.696.788-2.187.788H5.79c-.675 0-1.665-.591-1.665-1.314V4.5L8.195.288l.003-.002A.939.939 0 0 1 9.525.268c.123.197.245.46.245.722v.197L9.157 4.21h3.866Z" fill="#BCBFC2"/></svg><svg fill="none" viewBox="0 0 50 50" id="Video" xmlns="http://www.w3.org/2000/svg"><path opacity=".4" fill-rule="evenodd" clip-rule="evenodd" d="M25 50C11.193 50 0 38.806 0 25 0 11.192 11.193 0 25 0s25 11.192 25 25c0 13.807-11.193 25-25 25Zm0-2.5c12.426 0 22.5-10.074 22.5-22.5C47.5 12.573 37.426 2.5 25 2.5S2.5 12.573 2.5 25c0 12.426 10.074 22.5 22.5 22.5Z" fill="#fff"/><path fill-rule="evenodd" clip-rule="evenodd" d="M20.5 30.923V19.076c0-.457.383-.826.855-.826.164 0 .325.045.463.13l9.539 5.924a.81.81 0 0 1 0 1.39l-9.539 5.924a.874.874 0 0 1-1.182-.248.806.806 0 0 1-.136-.447Z" fill="#fff"/></svg><svg fill="none" viewBox="0 0 40 40" id="dots" xmlns="http://www.w3.org/2000/svg"><path d="M39.5 20c0 10.77-8.73 19.5-19.5 19.5S.5 30.77.5 20 9.23.5 20 .5 39.5 9.23 39.5 20Z" stroke="#D9DADB"/><path fill-rule="evenodd" clip-rule="evenodd" d="M12 22a2 2 0 1 1 0-4 2 2 0 0 1 0 4Zm8 0a2 2 0 1 1 0-4 2 2 0 0 1 0 4Zm8 0a2 2 0 1 1 0-4 2 2 0 0 1 0 4Z" fill="#BCBFC2"/></svg><svg fill="none" viewBox="0 0 40 40" id="facebook-bg" xmlns="http://www.w3.org/2000/svg"><path fill-rule="evenodd" clip-rule="evenodd" d="M20 40c11.046 0 20-8.954 20-20S31.046 0 20 0 0 8.954 0 20s8.954 20 20 20Z" fill="#4267B2"/><path fill-rule="evenodd" clip-rule="evenodd" d="M24.623 11.004 22.225 11c-2.695 0-4.436 1.739-4.436 4.43v2.042h-2.412a.372.372 0 0 0-.377.367v2.96c0 .203.169.367.377.367h2.412v7.467c0 .203.168.367.377.367h3.146a.372.372 0 0 0 .378-.367v-7.467h2.82a.372.372 0 0 0 .377-.367v-2.96c0-.097-.04-.19-.11-.26a.383.383 0 0 0-.267-.107h-2.82v-1.731c0-.832.203-1.255 1.317-1.255h1.616a.372.372 0 0 0 .377-.367V11.37a.372.372 0 0 0-.377-.367Z" fill="#fff"/></svg><svg fill="none" viewBox="0 0 40 40" id="facebookR" xmlns="http://www.w3.org/2000/svg"><path d="M39.5 20c0 10.77-8.73 19.5-19.5 19.5S.5 30.77.5 20 9.23.5 20 .5 39.5 9.23 39.5 20Z" stroke="#D9DADB"/><path fill-rule="evenodd" clip-rule="evenodd" d="M24.623 11.004 22.225 11c-2.695 0-4.436 1.739-4.436 4.43v2.042h-2.412a.372.372 0 0 0-.377.367v2.96c0 .203.169.367.377.367h2.412v7.467c0 .203.168.367.377.367h3.146a.372.372 0 0 0 .378-.367v-7.467h2.82a.372.372 0 0 0 .377-.367v-2.96c0-.097-.04-.19-.11-.26a.383.383 0 0 0-.267-.107h-2.82v-1.731c0-.832.203-1.255 1.317-1.255h1.616a.372.372 0 0 0 .377-.367V11.37a.372.372 0 0 0-.377-.367Z" fill="#BCBFC2"/></svg><svg fill="none" viewBox="0 0 40 40" id="instaR" xmlns="http://www.w3.org/2000/svg"><path d="M39.5 20c0 10.77-8.73 19.5-19.5 19.5S.5 30.77.5 20 9.23.5 20 .5 39.5 9.23 39.5 20Z" stroke="#D9DADB"/><path fill-rule="evenodd" clip-rule="evenodd" d="M20 11.5c2.308 0 2.598.01 3.505.051.904.041 1.522.185 2.063.395a4.165 4.165 0 0 1 1.505.98c.473.473.764.947.98 1.506.21.54.355 1.159.396 2.063.041.907.051 1.197.051 3.505s-.01 2.598-.051 3.505c-.041.904-.185 1.522-.395 2.063a4.167 4.167 0 0 1-.98 1.505 4.167 4.167 0 0 1-1.506.98c-.54.21-1.159.355-2.064.396-.906.041-1.196.051-3.504.051s-2.598-.01-3.505-.051c-.904-.041-1.522-.185-2.063-.395a4.167 4.167 0 0 1-1.505-.98 4.165 4.165 0 0 1-.98-1.506c-.21-.54-.355-1.159-.396-2.064-.041-.906-.051-1.196-.051-3.504s.01-2.598.051-3.505c.041-.904.185-1.522.395-2.063a4.165 4.165 0 0 1 .98-1.505 4.165 4.165 0 0 1 1.506-.98c.54-.21 1.159-.355 2.063-.396.907-.041 1.197-.051 3.505-.051Zm-.003 11.33a2.833 2.833 0 1 0 0-5.665 2.833 2.833 0 0 0 0 5.665Zm0-7.196a4.363 4.363 0 1 1 0 8.727 4.363 4.363 0 0 1 0-8.727Zm5.859-.262a1.039 1.039 0 1 1-2.078 0 1.039 1.039 0 0 1 2.078 0Z" fill="#BCBFC2"/></svg><svg fill="none" viewBox="0 0 40 40" id="instagram-bg" xmlns="http://www.w3.org/2000/svg"><path fill-rule="evenodd" clip-rule="evenodd" d="M20 40c11.046 0 20-8.954 20-20S31.046 0 20 0 0 8.954 0 20s8.954 20 20 20Z" fill="#262626"/><path fill-rule="evenodd" clip-rule="evenodd" d="M20 11.5c2.308 0 2.598.01 3.505.051.904.041 1.522.185 2.063.395a4.165 4.165 0 0 1 1.505.98c.473.473.764.947.98 1.506.21.54.355 1.159.396 2.063.041.907.051 1.197.051 3.505s-.01 2.598-.051 3.505c-.041.904-.185 1.522-.395 2.063a4.167 4.167 0 0 1-.98 1.505 4.167 4.167 0 0 1-1.506.98c-.54.21-1.159.355-2.064.396-.906.041-1.196.051-3.504.051s-2.598-.01-3.505-.051c-.904-.041-1.522-.185-2.063-.395a4.167 4.167 0 0 1-1.505-.98 4.165 4.165 0 0 1-.98-1.506c-.21-.54-.355-1.159-.396-2.064-.041-.906-.051-1.196-.051-3.504s.01-2.598.051-3.505c.041-.904.185-1.522.395-2.063a4.165 4.165 0 0 1 .98-1.505 4.165 4.165 0 0 1 1.506-.98c.54-.21 1.159-.355 2.063-.396.907-.041 1.197-.051 3.505-.051Zm-.003 11.33a2.833 2.833 0 1 0 0-5.665 2.833 2.833 0 0 0 0 5.665Zm0-7.196a4.363 4.363 0 1 1 0 8.727 4.363 4.363 0 0 1 0-8.727Zm5.859-.262a1.039 1.039 0 1 1-2.078 0 1.039 1.039 0 0 1 2.078 0Z" fill="#fff"/></svg><svg fill="none" viewBox="0 0 50 50" id="logo-symbol" xmlns="http://www.w3.org/2000/svg"><path fill-rule="evenodd" clip-rule="evenodd" d="M25 50c13.807 0 25-11.193 25-25S38.807 0 25 0 0 11.193 0 25s11.193 25 25 25Z" fill="#4592FF"/><mask id="awa" style="mask-type:luminance" maskUnits="userSpaceOnUse" x="0" y="0" width="50" height="50"><path fill-rule="evenodd" clip-rule="evenodd" d="M25 50c13.807 0 25-11.193 25-25S38.807 0 25 0 0 11.193 0 25s11.193 25 25 25Z" fill="#fff"/></mask><g mask="url(#awa)" fill="#fff"><path d="M1.926 27.131c.643 0 1.217-.106 1.72-.32.512-.213.94-.513 1.287-.899.347-.385.61-.853.792-1.403.19-.55.285-1.166.285-1.847V12h3.33v10.662c0 1.059-.174 2.04-.52 2.943a6.633 6.633 0 0 1-1.473 2.327c-.636.648-1.411 1.157-2.327 1.526-.916.361-1.947.542-3.094.542-1.155 0-2.19-.18-3.107-.542a6.87 6.87 0 0 1-2.339-1.526 6.876 6.876 0 0 1-1.473-2.327c-.338-.903-.507-1.884-.507-2.943V12h3.33v10.65c0 .681.09 1.297.271 1.847.19.55.458 1.021.805 1.415.355.386.784.686 1.287.9.512.213 1.09.32 1.733.32ZM28.18 12v17.803h-1.707c-.264 0-.487-.041-.669-.123a1.652 1.652 0 0 1-.507-.443l-9.344-11.869c.05.542.074 1.042.074 1.502v10.933h-2.933V12h1.745c.14 0 .26.008.359.025a.663.663 0 0 1 .272.073c.082.033.16.087.235.16.074.066.157.157.248.271l9.38 11.918c-.024-.287-.044-.57-.061-.85-.016-.278-.025-.537-.025-.775V12h2.933ZM47.5 12l-7.228 17.803h-3.007L30.037 12h2.673c.29 0 .524.07.706.21.181.139.318.32.408.541l4.22 10.86c.14.352.273.742.397 1.169.132.418.255.857.37 1.317.1-.46.207-.899.323-1.317.115-.427.243-.817.383-1.17l4.196-10.859c.066-.189.194-.361.383-.517.199-.156.438-.234.718-.234H47.5Z"/></g></svg><svg fill="none" viewBox="0 0 22 28" id="mark" xmlns="http://www.w3.org/2000/svg"><path fill-rule="evenodd" clip-rule="evenodd" d="M3.5.5h15a3 3 0 0 1 3 3v24L11.142 20 .5 27.5v-24a3 3 0 0 1 3-3Z" fill="#fff"/></svg><svg fill="none" viewBox="0 0 15 7" id="next" xmlns="http://www.w3.org/2000/svg"><path fill-rule="evenodd" clip-rule="evenodd" d="M0 3v1h11v3l4-3.5L11 0v3H0Z" fill="#fff"/></svg><svg fill="none" viewBox="0 0 19 15" id="photos" xmlns="http://www.w3.org/2000/svg"><path fill-rule="evenodd" clip-rule="evenodd" d="M3 3V1a1 1 0 0 1 1-1h14a1 1 0 0 1 1 1v10a1 1 0 0 1-1 1h-2v2a1 1 0 0 1-1 1H1a1 1 0 0 1-1-1V4a1 1 0 0 1 1-1h2Zm12 9H4a1 1 0 0 1-1-1V4H1v10h14v-2ZM4 1v10h14V1H4Zm14 10H4v-1l3-3 3 2 4-4 4 5v1ZM9.5 6a1.5 1.5 0 1 1 0-3 1.5 1.5 0 0 1 0 3Z" fill="#fff"/></svg><svg fill="none" viewBox="0 0 15 7" id="prev" xmlns="http://www.w3.org/2000/svg"><path fill-rule="evenodd" clip-rule="evenodd" d="M15 3v1H4v3L0 3.5 4 0v3h11Z" fill="#fff"/></svg><svg fill="none" viewBox="0 0 40 40" id="twiterR" xmlns="http://www.w3.org/2000/svg"><path d="M39.5 20c0 10.77-8.73 19.5-19.5 19.5S.5 30.77.5 20 9.23.5 20 .5 39.5 9.23 39.5 20Z" stroke="#D9DADB"/><path fill-rule="evenodd" clip-rule="evenodd" d="M28.979 14.363a.088.088 0 0 0-.105-.024 7.153 7.153 0 0 1-1.687.516 3.777 3.777 0 0 0 1.317-1.867.09.09 0 0 0-.03-.098.089.089 0 0 0-.101-.007 7.177 7.177 0 0 1-2.245.874 3.745 3.745 0 0 0-2.7-1.157c-2.066 0-3.746 1.696-3.746 3.781 0 .252.024.502.072.744A10.297 10.297 0 0 1 12.4 13.31a.09.09 0 0 0-.147.012 3.806 3.806 0 0 0-.506 1.9c0 1.16.521 2.243 1.41 2.958a3.556 3.556 0 0 1-1.307-.426.088.088 0 0 0-.088 0 .09.09 0 0 0-.045.077v.048a3.79 3.79 0 0 0 2.633 3.612c-.408.066-.83.062-1.245-.018a.09.09 0 0 0-.102.116 3.752 3.752 0 0 0 3.251 2.613 7.154 7.154 0 0 1-4.292 1.412c-.287 0-.577-.017-.861-.05a.09.09 0 0 0-.095.058.09.09 0 0 0 .036.107 10.38 10.38 0 0 0 5.653 1.672c6.568 0 10.492-5.385 10.492-10.591 0-.145-.002-.29-.008-.433a7.51 7.51 0 0 0 1.807-1.905.091.091 0 0 0-.006-.108Z" fill="#BCBFC2"/></svg><svg fill="none" viewBox="0 0 18 16" id="twitter" xmlns="http://www.w3.org/2000/svg"><path fill-rule="evenodd" clip-rule="evenodd" d="M17.979 2.363a.088.088 0 0 0-.105-.025 7.151 7.151 0 0 1-1.687.517A3.777 3.777 0 0 0 17.504.988a.09.09 0 0 0-.03-.098.089.089 0 0 0-.101-.008 7.177 7.177 0 0 1-2.245.875A3.745 3.745 0 0 0 12.428.6c-2.066 0-3.746 1.696-3.746 3.78 0 .253.024.503.072.745A10.298 10.298 0 0 1 1.4 1.31a.09.09 0 0 0-.147.012 3.806 3.806 0 0 0-.507 1.9c0 1.16.522 2.243 1.41 2.958a3.557 3.557 0 0 1-1.307-.426.088.088 0 0 0-.088 0 .09.09 0 0 0-.045.077v.048A3.79 3.79 0 0 0 3.349 9.49c-.408.066-.83.062-1.245-.018a.09.09 0 0 0-.102.116A3.752 3.752 0 0 0 5.253 12.2a7.154 7.154 0 0 1-4.292 1.412c-.287 0-.577-.017-.861-.051a.09.09 0 0 0-.095.059.09.09 0 0 0 .036.106A10.38 10.38 0 0 0 5.694 15.4c6.568 0 10.492-5.385 10.492-10.591 0-.145-.002-.29-.008-.433a7.51 7.51 0 0 0 1.807-1.905.091.091 0 0 0-.006-.108Z" fill="#fff"/></svg><svg fill="none" viewBox="0 0 40 40" id="twitter-bg" xmlns="http://www.w3.org/2000/svg"><path fill-rule="evenodd" clip-rule="evenodd" d="M20 40c11.046 0 20-8.954 20-20S31.046 0 20 0 0 8.954 0 20s8.954 20 20 20Z" fill="#1DA1F2"/><path fill-rule="evenodd" clip-rule="evenodd" d="M28.979 14.363a.088.088 0 0 0-.105-.024 7.153 7.153 0 0 1-1.687.516 3.777 3.777 0 0 0 1.317-1.867.09.09 0 0 0-.03-.098.089.089 0 0 0-.101-.008 7.177 7.177 0 0 1-2.245.875 3.745 3.745 0 0 0-2.7-1.157c-2.066 0-3.746 1.696-3.746 3.78 0 .253.024.503.072.745A10.297 10.297 0 0 1 12.4 13.31a.09.09 0 0 0-.147.012 3.806 3.806 0 0 0-.506 1.9c0 1.16.521 2.243 1.41 2.958a3.556 3.556 0 0 1-1.307-.426.088.088 0 0 0-.088 0 .09.09 0 0 0-.045.077v.048a3.79 3.79 0 0 0 2.633 3.612c-.408.066-.83.062-1.245-.018a.09.09 0 0 0-.102.116 3.752 3.752 0 0 0 3.251 2.613 7.154 7.154 0 0 1-4.292 1.412c-.287 0-.577-.017-.861-.051a.09.09 0 0 0-.095.059.09.09 0 0 0 .036.106 10.38 10.38 0 0 0 5.653 1.673c6.568 0 10.492-5.385 10.492-10.591 0-.145-.002-.29-.008-.433a7.512 7.512 0 0 0 1.807-1.905.091.091 0 0 0-.006-.108Z" fill="#fff"/></svg><svg fill="none" viewBox="0 0 18 16" id="youtube" xmlns="http://www.w3.org/2000/svg"><path fill-rule="evenodd" clip-rule="evenodd" d="M9 .8c-2.898 0-6.66.73-6.66.73l-.009.01A2.77 2.77 0 0 0 0 4.277v7.445a2.778 2.778 0 0 0 2.338 2.743l.003.004S6.102 15.2 9 15.2c2.898 0 6.66-.73 6.66-.73A2.78 2.78 0 0 0 18 11.722V4.277a2.778 2.778 0 0 0-2.338-2.744C15.66 1.53 11.898.8 9 .8ZM7.2 4.85 12.6 8l-5.4 3.15v-6.3Z" fill="#fff"/></svg><svg fill="none" viewBox="0 0 40 40" id="youtube-bg" xmlns="http://www.w3.org/2000/svg"><path fill-rule="evenodd" clip-rule="evenodd" d="M20 40c11.046 0 20-8.954 20-20S31.046 0 20 0 0 8.954 0 20s8.954 20 20 20Z" fill="red"/><path fill-rule="evenodd" clip-rule="evenodd" d="M20 12.8c-2.898 0-6.66.73-6.66.73l-.009.01A2.77 2.77 0 0 0 11 16.277v7.445a2.778 2.778 0 0 0 2.338 2.743l.003.004s3.761.731 6.659.731c2.898 0 6.66-.73 6.66-.73A2.78 2.78 0 0 0 29 23.722v-7.446a2.778 2.778 0 0 0-2.338-2.744C26.66 13.53 22.898 12.8 20 12.8Zm-1.8 4.05L23.6 20l-5.4 3.15v-6.3Z" fill="#fff"/></svg></svg>